<mxfile host="app.diagrams.net" modified="2021-11-18T08:11:48.950Z" agent="5.0 (Macintosh; Intel Mac OS X 10_15_7) AppleWebKit/537.36 (KHTML, like Gecko) Chrome/95.0.4638.69 Safari/537.36" etag="XSdrwIRNIVlKva1HmWFh" version="15.7.4" type="github">
  <diagram id="KWr5jjDxCZMZ8XPNrlNS" name="Page-1">
    <mxGraphModel dx="1298" dy="834" grid="1" gridSize="10" guides="1" tooltips="1" connect="1" arrows="1" fold="1" page="1" pageScale="1" pageWidth="827" pageHeight="1169" math="0" shadow="0">
      <root>
        <mxCell id="0" />
        <mxCell id="1" parent="0" />
        <mxCell id="wnbMdyc3lpUEOFy9_U3a-4" style="edgeStyle=orthogonalEdgeStyle;rounded=0;orthogonalLoop=1;jettySize=auto;html=1;exitX=0.5;exitY=1;exitDx=0;exitDy=0;" edge="1" parent="1" source="wnbMdyc3lpUEOFy9_U3a-1" target="wnbMdyc3lpUEOFy9_U3a-5">
          <mxGeometry relative="1" as="geometry">
            <mxPoint x="623.8275862068965" y="130" as="targetPoint" />
          </mxGeometry>
        </mxCell>
        <mxCell id="wnbMdyc3lpUEOFy9_U3a-1" value="&lt;pre style=&quot;background-color: #212121 ; color: #eeffff ; font-family: &amp;#34;menlo&amp;#34; , monospace ; font-size: 9.0pt&quot;&gt;configuration&lt;span style=&quot;color: #89ddff&quot;&gt;: &lt;/span&gt;&lt;span style=&quot;color: #f78c6c&quot;&gt;$resource&lt;/span&gt;&lt;span style=&quot;color: #89ddff&quot;&gt;(&lt;/span&gt;configurationUrl&lt;span style=&quot;color: #89ddff&quot;&gt;)&lt;/span&gt;&lt;/pre&gt;" style="rounded=1;whiteSpace=wrap;html=1;fillColor=#ffe6cc;strokeColor=#d79b00;" vertex="1" parent="1">
          <mxGeometry x="469" y="70" width="310" height="30" as="geometry" />
        </mxCell>
        <mxCell id="wnbMdyc3lpUEOFy9_U3a-2" value="projects/web-legacy/src/components/championship/championship-resource.js" style="text;html=1;strokeColor=#d79b00;fillColor=#ffe6cc;align=center;verticalAlign=middle;whiteSpace=wrap;rounded=0;" vertex="1" parent="1">
          <mxGeometry x="414" y="40" width="420" height="30" as="geometry" />
        </mxCell>
        <mxCell id="wnbMdyc3lpUEOFy9_U3a-10" style="edgeStyle=orthogonalEdgeStyle;rounded=0;orthogonalLoop=1;jettySize=auto;html=1;exitX=0.5;exitY=1;exitDx=0;exitDy=0;entryX=0.5;entryY=0;entryDx=0;entryDy=0;" edge="1" parent="1" source="wnbMdyc3lpUEOFy9_U3a-3" target="wnbMdyc3lpUEOFy9_U3a-9">
          <mxGeometry relative="1" as="geometry" />
        </mxCell>
        <mxCell id="wnbMdyc3lpUEOFy9_U3a-11" style="edgeStyle=orthogonalEdgeStyle;rounded=0;orthogonalLoop=1;jettySize=auto;html=1;exitX=0.5;exitY=1;exitDx=0;exitDy=0;entryX=0.5;entryY=0;entryDx=0;entryDy=0;" edge="1" parent="1" source="wnbMdyc3lpUEOFy9_U3a-3" target="wnbMdyc3lpUEOFy9_U3a-7">
          <mxGeometry relative="1" as="geometry" />
        </mxCell>
        <mxCell id="wnbMdyc3lpUEOFy9_U3a-3" value="&lt;pre style=&quot;background-color: #212121 ; color: #eeffff ; font-family: &amp;#34;menlo&amp;#34; , monospace ; font-size: 9.0pt&quot;&gt;&lt;span style=&quot;color: #82aaff&quot;&gt;getConfiguration&lt;/span&gt;&lt;span style=&quot;color: #89ddff&quot;&gt;()&lt;/span&gt;&lt;/pre&gt;" style="rounded=1;whiteSpace=wrap;html=1;fillColor=#f5f5f5;strokeColor=#666666;fontColor=#333333;" vertex="1" parent="1">
          <mxGeometry x="549" y="190" width="150" height="30" as="geometry" />
        </mxCell>
        <mxCell id="wnbMdyc3lpUEOFy9_U3a-5" value="projects/web-legacy/src/components/championship/championship-service.js" style="text;html=1;strokeColor=#666666;fillColor=#f5f5f5;align=center;verticalAlign=middle;whiteSpace=wrap;rounded=0;fontColor=#333333;" vertex="1" parent="1">
          <mxGeometry x="421.5" y="160" width="405" height="30" as="geometry" />
        </mxCell>
        <mxCell id="wnbMdyc3lpUEOFy9_U3a-6" value="&lt;pre style=&quot;background-color: #212121 ; color: #eeffff ; font-family: &amp;#34;menlo&amp;#34; , monospace ; font-size: 9.0pt&quot;&gt;&lt;span style=&quot;color: #f78c6c&quot;&gt;ChampionshipService&lt;/span&gt;&lt;span style=&quot;color: #89ddff&quot;&gt;.&lt;/span&gt;&lt;span style=&quot;color: #82aaff&quot;&gt;getConfiguration&lt;/span&gt;&lt;span style=&quot;color: #89ddff&quot;&gt;()&lt;/span&gt;&lt;/pre&gt;" style="rounded=1;whiteSpace=wrap;html=1;fillColor=#fff2cc;strokeColor=#d6b656;" vertex="1" parent="1">
          <mxGeometry x="150" y="380" width="290" height="40" as="geometry" />
        </mxCell>
        <mxCell id="wnbMdyc3lpUEOFy9_U3a-7" value="projects/web-legacy/src/components/championship/create/create-championship-modal-controller.js" style="text;html=1;strokeColor=#d6b656;fillColor=#fff2cc;align=center;verticalAlign=middle;whiteSpace=wrap;rounded=0;" vertex="1" parent="1">
          <mxGeometry x="30" y="350" width="530" height="30" as="geometry" />
        </mxCell>
        <mxCell id="wnbMdyc3lpUEOFy9_U3a-8" value="&lt;pre style=&quot;background-color: #212121 ; color: #eeffff ; font-family: &amp;#34;menlo&amp;#34; , monospace ; font-size: 9.0pt&quot;&gt;&lt;span style=&quot;color: #f78c6c&quot;&gt;ChampionshipService&lt;/span&gt;&lt;span style=&quot;color: #89ddff&quot;&gt;.&lt;/span&gt;&lt;span style=&quot;color: #82aaff&quot;&gt;getConfiguration&lt;/span&gt;&lt;span style=&quot;color: #89ddff&quot;&gt;()&lt;/span&gt;&lt;/pre&gt;" style="rounded=1;whiteSpace=wrap;html=1;fillColor=#fff2cc;strokeColor=#d6b656;" vertex="1" parent="1">
          <mxGeometry x="831" y="380" width="290" height="40" as="geometry" />
        </mxCell>
        <mxCell id="wnbMdyc3lpUEOFy9_U3a-9" value="projects/web-legacy/src/pages/championship/index.js" style="text;html=1;strokeColor=#d6b656;fillColor=#fff2cc;align=center;verticalAlign=middle;whiteSpace=wrap;rounded=0;" vertex="1" parent="1">
          <mxGeometry x="831" y="350" width="291" height="30" as="geometry" />
        </mxCell>
      </root>
    </mxGraphModel>
  </diagram>
</mxfile>
